<?xml version="1.0" encoding="utf-8"?>
<!-- Generator: Adobe Illustrator 16.0.0, SVG Export Plug-In . SVG Version: 6.00 Build 0)  -->
<!DOCTYPE svg PUBLIC "-//W3C//DTD SVG 1.1//EN" "http://www.w3.org/Graphics/SVG/1.1/DTD/svg11.dtd">
<svg version="1.1" id="Layer_1" xmlns="http://www.w3.org/2000/svg" xmlns:xlink="http://www.w3.org/1999/xlink" x="0px" y="0px"
	 width="147px" height="28px" viewBox="0 0 147 28" enable-background="new 0 0 147 28" xml:space="preserve">
<title>05/Brand/Logo Small</title>
<desc>Created with Sketch.</desc>
<g>
	<g transform="translate(0.000000,205.000000) scale(0.100000,-0.100000)">
		<g>
			<path fill="#f0513c" d="M137.656,2037.431c-4.165-0.615-10.776-2.09-14.707-3.311l-7.227-2.212l10.908-2.075
				c6.123-1.235,19.854-5.146,30.635-8.823c22.92-7.725,35.664-10.176,57.842-11.289c21.567-0.972,22.554-0.479,12.627,6.509
				C202.612,2033.999,168.911,2041.836,137.656,2037.431z"/>
		</g>
		<g>
			<path fill="#f0513c" d="M69.766,2003.725c-7.354-6.865-17.769-19.849-16.792-20.957c0.493-0.366,8.34,0,17.651,0.854
				c33.452,3.066,55.757-0.117,92.28-12.861c24.263-8.579,56.367-11.279,88.73-7.476c9.434,1.099,17.28,2.197,17.642,2.456
				c0.859,0.854-8.701,17.764-11.401,20.332c-2.202,2.085-3.433,2.212-13.477,0.977c-13.604-1.587-47.183-0.483-58.945,1.973
				c-4.902,0.977-18.018,4.897-29.165,8.574c-25.005,8.33-36.152,10.537-60.913,11.401l-19.238,0.723L69.766,2003.725z"/>
		</g>
		<g>
			<path fill="#f0513c" d="M73.442,1960.219c-7.109-0.488-17.769-1.714-23.896-2.573l-10.903-1.592l-2.212-7.114
				c-1.099-3.916-2.446-9.795-2.935-13.11l-0.737-5.879l4.78,0.981c11.025,2.568,37.007,5.015,52.695,5.015
				c23.413,0,40.073-2.69,61.641-9.917c25.615-8.579,34.556-10.664,53.188-12.256c12.007-0.981,21.069-0.981,33.452,0
				c18.994,1.47,39.585,4.536,41.304,6.26c1.226,1.089-0.615,21.313-1.968,22.671c-0.366,0.239-5.757-0.254-12.129-1.357
				c-39.829-6.377-80.151-3.677-107.104,6.982C133.618,1958.379,102.607,1962.671,73.442,1960.219z"/>
		</g>
		<g>
			<path fill="#f0513c" d="M56.04,1910.219c-21.812-3.057-24.263-3.667-24.263-5.757c0-3.799,2.695-19.482,3.428-20.342
				c0.493-0.361,7.725,0.381,16.182,1.719c11.392,1.963,21.318,2.559,38.599,2.686c27.207,0.137,39.712-1.963,65.566-11.016
				c25.366-8.838,34.438-10.557,59.556-11.279c22.065-0.498,40.566,0.723,52.7,3.789l5.879,1.484l2.822,8.564
				c2.817,9.072,3.555,15.322,1.709,15.322c-0.605,0-5.137-0.859-10.039-1.836c-20.713-4.17-50.132-5.391-69.736-3.066
				c-12.988,1.602-29.897,5.889-45.952,11.758c-19.365,6.987-32.354,9.209-57.603,9.688
				C77.856,1912.304,69.033,1911.933,56.04,1910.219z"/>
		</g>
		<g>
			<path fill="#f0513c" d="M73.442,1864.746c-16.543-1.338-29.409-3.662-29.409-5.264c0-1.475,7.842-14.814,10.664-18.262
				c1.343-1.582,5.508-1.699,28.184-1.221c23.896,0.498,28.188,0.254,40.806-2.09c7.725-1.465,22.065-5.381,31.865-8.809
				c24.507-8.35,37.378-10.801,60.293-11.777l19.238-0.742l8.457,8.096c8.457,8.33,16.543,18.379,15.566,19.482
				c-0.371,0.381-3.56,0.127-7.109-0.596c-3.428-0.625-16.787-1.123-29.658-1.24c-27.446-0.107-38.477,1.836-66.66,11.514
				C127.368,1863.535,101.265,1866.953,73.442,1864.746z"/>
		</g>
		<g>
			<path fill="#f0513c" d="M78.345,1816.582c0-1.338,13.853-10.156,22.671-14.697c10.786-5.391,21.201-8.955,31.738-10.781
				c10.913-1.836,46.943-0.742,55.273,1.719c6.865,1.953,6.616,2.197-7.354,5.156c-5.391,1.201-16.67,4.531-25.122,7.451
				c-23.037,7.969-35.537,10.43-57.842,11.152C87.046,1816.963,78.345,1816.963,78.345,1816.582z"/>
		</g>
	</g>
</g>
<g>
	<path d="M42.209,15.251v7.132h-3.343V4.516h3.343v6.737c0.754-0.889,1.868-1.333,3.343-1.333c1.508,0,2.652,0.448,3.431,1.345
		c0.779,0.897,1.169,2.053,1.169,3.467v7.65h-3.343v-7.082c0-0.725-0.188-1.309-0.565-1.753c-0.377-0.444-0.951-0.666-1.722-0.666
		c-0.688,0-1.236,0.222-1.646,0.666C42.465,13.992,42.243,14.56,42.209,15.251z"/>
	<path d="M60.206,18.089l2.79,0.814c-0.335,1.119-0.993,2.04-1.973,2.764c-0.98,0.724-2.199,1.086-3.657,1.086
		c-1.776,0-3.285-0.588-4.524-1.765c-1.24-1.176-1.86-2.751-1.86-4.726c0-1.875,0.604-3.41,1.81-4.603
		c1.207-1.193,2.631-1.789,4.273-1.789c1.91,0,3.406,0.559,4.486,1.678c1.081,1.119,1.622,2.657,1.622,4.615
		c0,0.132-0.004,0.279-0.013,0.444c-0.009,0.164-0.013,0.296-0.013,0.395l-0.025,0.173h-8.848c0.034,0.79,0.352,1.448,0.955,1.975
		c0.604,0.526,1.324,0.789,2.162,0.789C58.815,19.939,59.753,19.322,60.206,18.089z M54.35,14.93h5.529
		c-0.034-0.674-0.281-1.242-0.741-1.703c-0.461-0.46-1.135-0.691-2.023-0.691c-0.804,0-1.458,0.247-1.96,0.74
		C54.651,13.77,54.383,14.321,54.35,14.93z"/>
	<path d="M62.493,22.383l4.398-6.096l-4.398-6.046h3.971c0.151,0.214,0.565,0.811,1.244,1.789c0.679,0.979,1.084,1.583,1.219,1.814
		l2.438-3.603h3.795l-4.323,5.947l4.474,6.194h-3.92l-2.589-3.727c-0.084,0.132-0.323,0.485-0.716,1.062
		c-0.394,0.576-0.763,1.114-1.106,1.616c-0.344,0.502-0.583,0.852-0.716,1.049H62.493z"/>
	<path d="M74.884,19.076c0-1.037,0.343-1.867,1.03-2.493c0.688-0.625,1.575-1.02,2.665-1.185l3.041-0.443
		c0.619-0.082,0.93-0.371,0.93-0.864c0-0.46-0.18-0.839-0.54-1.135c-0.36-0.296-0.876-0.444-1.546-0.444
		c-0.704,0-1.261,0.189-1.672,0.567c-0.41,0.378-0.641,0.848-0.69,1.407l-2.967-0.617c0.117-1.053,0.646-1.982,1.584-2.789
		c0.938-0.806,2.178-1.209,3.72-1.209c1.844,0,3.2,0.432,4.072,1.295c0.871,0.864,1.307,1.97,1.307,3.319v5.972
		c0,0.724,0.051,1.365,0.151,1.925h-3.066c-0.085-0.361-0.126-0.847-0.126-1.456c-0.788,1.201-2.003,1.802-3.645,1.802
		c-1.273,0-2.3-0.362-3.079-1.086S74.884,20.063,74.884,19.076z M79.836,20.285c0.787,0,1.437-0.218,1.947-0.654
		c0.511-0.436,0.767-1.155,0.767-2.159v-0.543l-2.79,0.42c-1.021,0.147-1.533,0.658-1.533,1.53c0,0.395,0.143,0.728,0.428,0.999
		C78.938,20.149,79.333,20.285,79.836,20.285z"/>
	<path d="M86.622,23.049l3.016-0.789c0.117,0.674,0.436,1.225,0.955,1.653c0.52,0.428,1.164,0.642,1.936,0.642
		c2.194,0,3.292-1.127,3.292-3.381v-0.889c-0.284,0.444-0.72,0.814-1.307,1.11s-1.299,0.444-2.137,0.444
		c-1.642,0-3.012-0.559-4.109-1.678s-1.646-2.525-1.646-4.221c0-1.645,0.544-3.043,1.633-4.195c1.09-1.151,2.464-1.728,4.122-1.728
		c0.905,0,1.659,0.16,2.263,0.481s1.021,0.712,1.257,1.172v-1.431h3.217v10.834c0,1.826-0.536,3.344-1.608,4.553
		s-2.698,1.813-4.876,1.813c-1.626,0-2.987-0.428-4.085-1.283S86.806,24.267,86.622,23.049z M92.955,19.026
		c0.854,0,1.555-0.279,2.1-0.839c0.544-0.56,0.816-1.308,0.816-2.246c0-0.921-0.281-1.661-0.842-2.221
		c-0.562-0.559-1.253-0.839-2.074-0.839c-0.854,0-1.563,0.28-2.123,0.839c-0.562,0.56-0.843,1.3-0.843,2.221
		c0,0.938,0.276,1.687,0.83,2.246C91.372,18.747,92.084,19.026,92.955,19.026z"/>
	<path d="M101.79,11.697c1.231-1.217,2.777-1.826,4.637-1.826c1.86,0,3.406,0.609,4.638,1.826c1.231,1.218,1.848,2.756,1.848,4.614
		c0,1.859-0.616,3.397-1.848,4.615s-2.777,1.826-4.638,1.826c-1.859,0-3.405-0.608-4.637-1.826s-1.848-2.756-1.848-4.615
		C99.942,14.453,100.559,12.915,101.79,11.697z M104.203,18.854c0.611,0.609,1.353,0.913,2.224,0.913s1.613-0.304,2.225-0.913
		c0.611-0.608,0.918-1.456,0.918-2.542c0-1.085-0.307-1.933-0.918-2.542c-0.611-0.608-1.354-0.913-2.225-0.913
		s-1.612,0.305-2.224,0.913c-0.612,0.609-0.918,1.457-0.918,2.542C103.285,17.397,103.591,18.245,104.203,18.854z"/>
	<path d="M117.26,15.398v6.984h-3.343V10.241h3.243v1.505c0.352-0.592,0.854-1.045,1.508-1.357s1.34-0.469,2.061-0.469
		c1.458,0,2.567,0.448,3.33,1.345c0.763,0.897,1.145,2.053,1.145,3.467v7.65h-3.344v-7.082c0-0.725-0.188-1.309-0.565-1.753
		c-0.377-0.444-0.951-0.666-1.722-0.666c-0.703,0-1.265,0.238-1.684,0.715C117.47,14.075,117.26,14.676,117.26,15.398z"/>
	<path d="M126.207,19.076c0-1.037,0.344-1.867,1.03-2.493c0.688-0.625,1.575-1.02,2.665-1.185l3.041-0.443
		c0.619-0.082,0.93-0.371,0.93-0.864c0-0.46-0.18-0.839-0.54-1.135c-0.36-0.296-0.876-0.444-1.546-0.444
		c-0.704,0-1.261,0.189-1.672,0.567c-0.41,0.378-0.641,0.848-0.69,1.407l-2.966-0.617c0.116-1.053,0.645-1.982,1.583-2.789
		c0.938-0.806,2.178-1.209,3.72-1.209c1.844,0,3.2,0.432,4.072,1.295c0.871,0.864,1.307,1.97,1.307,3.319v5.972
		c0,0.724,0.051,1.365,0.151,1.925h-3.066c-0.085-0.361-0.126-0.847-0.126-1.456c-0.788,1.201-2.003,1.802-3.645,1.802
		c-1.273,0-2.3-0.362-3.079-1.086S126.207,20.063,126.207,19.076z M131.159,20.285c0.787,0,1.437-0.218,1.947-0.654
		c0.511-0.436,0.767-1.155,0.767-2.159v-0.543l-2.79,0.42c-1.021,0.147-1.533,0.658-1.533,1.53c0,0.395,0.143,0.728,0.428,0.999
		C130.262,20.149,130.656,20.285,131.159,20.285z"/>
	<path d="M142.218,22.383h-3.343V4.516h3.343V22.383z"/>
</g>
</svg>
